<?xml version="1.0" encoding="UTF-8"?>
<svg id="Layer_1" data-name="Layer 1" xmlns="http://www.w3.org/2000/svg" viewBox="0 0 556.62 128.31">
  <g>
    <polygon points="187.71 68.56 169.4 40.04 161 40.04 161 92.07 172.57 92.07 172.57 63.26 183.84 80.86 191.5 80.86 202.78 63.26 202.78 92.07 214.35 92.07 214.35 40.04 205.95 40.04 187.71 68.56"/>
    <polygon points="243.68 56.25 236.44 77.97 229.31 56.25 217.08 56.25 230.72 89.61 222.61 107.17 234.25 107.17 240.59 92.29 255.91 56.25 243.68 56.25"/>
    <path d="M289.77,65.54c-1.43-1.23-3.01-2.22-4.75-2.98-1.75-.76-3.49-1.44-5.23-2.03-1.74-.59-3.34-1.18-4.79-1.77-1.45-.59-2.62-1.29-3.5-2.1-.88-.81-1.33-1.85-1.33-3.13,0-1.42.59-2.52,1.77-3.28,1.18-.76,2.77-1.14,4.79-1.14s3.75.39,5.34,1.18c1.6.79,3.18,1.99,4.75,3.61l7.59-7.59c-1.97-2.16-4.45-3.88-7.44-5.16-3-1.28-6.34-1.92-10.02-1.92s-6.71.6-9.51,1.81c-2.8,1.2-4.97,2.96-6.52,5.27-1.55,2.31-2.32,5.08-2.32,8.33,0,2.6.44,4.79,1.33,6.56.88,1.77,2.05,3.22,3.5,4.35,1.45,1.13,3.04,2.09,4.79,2.87,1.74.79,3.48,1.46,5.2,2.03,1.72.57,3.32,1.17,4.79,1.81,1.47.64,2.64,1.4,3.5,2.28.86.88,1.29,2.02,1.29,3.39,0,1.57-.68,2.81-2.03,3.72-1.35.91-3.23,1.36-5.64,1.36-2.7,0-5.07-.53-7.11-1.58-2.04-1.06-3.89-2.54-5.56-4.46l-7.52,7.52c2.5,2.85,5.29,4.96,8.36,6.34,3.07,1.38,6.77,2.06,11.09,2.06,6.29,0,11.2-1.41,14.74-4.24,3.54-2.82,5.31-6.72,5.31-11.68,0-2.75-.46-5.03-1.36-6.85-.91-1.82-2.08-3.34-3.5-4.57Z"/>
    <polygon points="334.21 76.88 327.5 56.25 318.22 56.25 311.55 76.95 305.4 56.25 294.27 56.25 306.65 92.07 315.93 92.07 322.92 71.47 329.79 92.07 339.07 92.07 351.53 56.25 340.4 56.25 334.21 76.88"/>
    <rect x="353.57" y="56.25" width="11.35" height="35.81"/>
    <path d="M359.24,38.94c-1.72,0-3.17.59-4.35,1.77-1.18,1.18-1.77,2.65-1.77,4.42s.59,3.19,1.77,4.42c1.18,1.23,2.63,1.84,4.35,1.84,1.82,0,3.28-.61,4.38-1.84,1.11-1.23,1.66-2.7,1.66-4.42s-.55-3.24-1.66-4.42c-1.1-1.18-2.57-1.77-4.38-1.77Z"/>
    <path d="M421.18,57.25c-2.16-1.15-4.59-1.73-7.29-1.73s-5.33.59-7.59,1.77c-1.52.79-2.81,1.84-3.91,3.1-1.03-1.29-2.27-2.35-3.71-3.18-1.99-1.13-4.21-1.69-6.67-1.69-2.7,0-5.1.55-7.18,1.66-.94.49-1.77,1.1-2.54,1.78v-2.7h-11.35v35.81h11.35v-20.93c0-1.18.26-2.19.77-3.02.52-.83,1.22-1.48,2.1-1.95.88-.47,1.89-.7,3.02-.7,1.62,0,2.98.5,4.09,1.51,1.11,1.01,1.66,2.4,1.66,4.16v20.93h11.35v-20.93c0-1.18.25-2.19.74-3.02.49-.83,1.19-1.48,2.1-1.95.91-.47,1.9-.7,2.98-.7,1.57,0,2.91.5,4.02,1.51,1.11,1.01,1.66,2.4,1.66,4.16v20.93h11.35v-22.25c0-3-.61-5.55-1.84-7.66-1.23-2.11-2.92-3.75-5.08-4.9Z"/>
    <path d="M455.17,81.82c-1.16.49-2.47.74-3.94.74s-2.92-.36-4.2-1.07c-1.28-.71-2.27-1.71-2.98-2.98-.71-1.28-1.07-2.75-1.07-4.42s.36-3.06,1.07-4.31c.71-1.25,1.69-2.23,2.95-2.95,1.25-.71,2.66-1.07,4.24-1.07,1.42,0,2.69.22,3.79.66,1.11.44,2.07,1.13,2.91,2.06l7.3-7.37c-1.82-1.87-3.89-3.28-6.23-4.24-2.33-.96-4.93-1.44-7.77-1.44-3.73,0-7.1.81-10.1,2.43-3,1.62-5.36,3.84-7.07,6.67-1.72,2.83-2.58,6.03-2.58,9.62s.85,6.73,2.54,9.58c1.7,2.85,4.04,5.08,7.04,6.71,3,1.62,6.36,2.43,10.09,2.43,2.95,0,5.59-.5,7.92-1.51,2.33-1.01,4.46-2.49,6.37-4.46l-7.29-7.22c-.84.93-1.83,1.65-2.98,2.14Z"/>
    <path d="M492.25,59.24c-.97-.92-2.08-1.71-3.35-2.32-1.94-.93-4.12-1.4-6.52-1.4-3.29,0-6.23.8-8.81,2.4-2.58,1.6-4.62,3.81-6.12,6.63-1.5,2.83-2.25,6.03-2.25,9.62s.75,6.77,2.25,9.54c1.5,2.78,3.55,4.99,6.15,6.63,2.6,1.65,5.53,2.47,8.77,2.47,2.46,0,4.65-.47,6.6-1.4,1.25-.6,2.33-1.37,3.28-2.27v2.93h11.13v-35.81h-11.13v2.99ZM484.73,82.56c-1.52,0-2.89-.36-4.09-1.07-1.2-.71-2.16-1.71-2.87-2.98-.71-1.28-1.07-2.73-1.07-4.35s.36-3.07,1.07-4.35c.71-1.28,1.67-2.27,2.87-2.98,1.2-.71,2.57-1.07,4.09-1.07s2.97.36,4.2,1.07c1.23.71,2.16,1.7,2.8,2.95.64,1.25.96,2.69.96,4.31,0,2.51-.73,4.54-2.17,6.12-1.45,1.57-3.38,2.36-5.78,2.36Z"/>
    <path d="M545.34,64.58c-1.52-2.8-3.6-5.01-6.23-6.63s-5.61-2.43-8.95-2.43c-2.41,0-4.62.49-6.63,1.47-1.03.5-1.96,1.1-2.8,1.79v-2.53h-11.35v50.92h11.2v-17.56c.85.69,1.81,1.3,2.87,1.79,2.01.93,4.25,1.4,6.71,1.4,3.34,0,6.34-.82,8.99-2.47,2.65-1.65,4.73-3.86,6.23-6.63,1.5-2.77,2.25-5.96,2.25-9.54s-.76-6.78-2.28-9.58ZM535.06,78.51c-.71,1.28-1.67,2.27-2.87,2.98-1.2.71-2.59,1.07-4.16,1.07s-2.89-.36-4.09-1.07c-1.2-.71-2.15-1.71-2.84-2.98-.69-1.28-1.03-2.73-1.03-4.35s.34-3.07,1.03-4.35c.69-1.28,1.63-2.27,2.84-2.98,1.2-.71,2.59-1.07,4.16-1.07s2.95.36,4.13,1.07c1.18.71,2.12,1.71,2.84,2.98.71,1.28,1.07,2.73,1.07,4.35s-.36,3.07-1.07,4.35Z"/>
  </g>
  <g>
    <g id="Ebene_1-2" data-name="Ebene 1-2">
      <path d="M72.36,20.67c14.23,0,27.23,5.17,36.6,14.56,9.06,9.07,14.03,21.61,14,35.3-.02,7.76-2.61,16.05-7.94,25.35-.76,1.18-2,3.55-2.54,8.42-3.24-.38-6.32-.57-9.29-.57-6.98,0-12.38,1.01-17.61,1.99-4.55.85-8.85,1.66-14.6,1.89-.58.02-1.16.04-1.72.04-4.44,0-7.61-.71-11.61-1.61-4.65-1.04-9.92-2.23-17.26-2.23-3.02,0-6.18.2-9.56.61-.5-5.86-1.83-7.89-2.58-9.04-5.6-8.58-7.59-15.07-7.59-24.82,0-13.45,5.36-26,15.09-35.36,9.75-9.37,22.75-14.53,36.6-14.53M72.36,9c-34.69,0-63.36,26.91-63.36,61.55,0,12.63,3.06,21.36,9.49,31.2.98,1.5.91,8.77.8,11.42-.1,2.35,1.79,4.25,4.04,4.25.27,0,.54-.03.82-.08,6.7-1.37,11.91-1.87,16.25-1.87,11.99,0,17.3,3.84,28.87,3.84.71,0,1.44-.01,2.19-.04,13.48-.54,20.19-3.87,31.74-3.87,4.39,0,9.48.48,15.91,1.78.28.06.55.08.83.08,2.28,0,4.21-1.91,4.07-4.29-.15-2.4-.18-9.33.92-10.9,7.51-12.98,9.7-23.27,9.71-31.51.07-35.92-27.58-61.55-62.27-61.55h0Z"/>
    </g>
    <path d="M71.82,95.55c-14.55,0-27.1-9.86-30.53-23.98l11.34-2.75c2.15,8.87,10.04,15.07,19.19,15.07s17.04-6.2,19.19-15.07l11.34,2.76c-3.43,14.12-15.99,23.98-30.53,23.98Z"/>
  </g>
</svg>