<?xml version="1.0" encoding="UTF-8"?>
<svg id="Layer_1" data-name="Layer 1" xmlns="http://www.w3.org/2000/svg" viewBox="0 0 192.53 171.24">
  <g id="Ebene_1-2" data-name="Ebene 1-2">
    <path d="M97.02,25.21c19.77,0,37.83,7.18,50.85,20.23,12.58,12.61,19.49,30.02,19.45,49.04-.02,10.78-3.63,22.3-11.04,35.21-1.06,1.64-2.78,4.94-3.53,11.7-4.5-.53-8.78-.79-12.9-.79-9.7,0-17.2,1.4-24.46,2.76-6.33,1.18-12.3,2.3-20.28,2.62-.81.03-1.62.05-2.39.05-6.17,0-10.57-.99-16.13-2.24-6.46-1.45-13.78-3.09-23.98-3.09-4.19,0-8.59.28-13.28.85-.7-8.14-2.54-10.97-3.59-12.56-7.78-11.91-10.54-20.94-10.54-34.48,0-18.68,7.44-36.12,20.96-49.12,13.54-13.02,31.6-20.19,50.85-20.19M97.02,9C48.83,9,9,46.39,9,94.51c0,17.54,4.25,29.68,13.18,43.35,1.36,2.08,1.27,12.19,1.11,15.87-.14,3.27,2.49,5.9,5.61,5.9.37,0,.75-.04,1.13-.12,9.31-1.9,16.55-2.6,22.57-2.6,16.65,0,24.04,5.33,40.11,5.33.98,0,2-.02,3.04-.06,18.72-.75,28.05-5.37,44.09-5.37,6.1,0,13.17.67,22.1,2.47.39.08.77.12,1.15.12,3.17,0,5.85-2.65,5.65-5.96-.2-3.34-.25-12.97,1.28-15.15,10.44-18.03,13.47-32.33,13.49-43.78.1-49.9-38.32-85.51-86.51-85.51h0Z"/>
  </g>
  <path d="M96.27,129.23c-20.21,0-37.65-13.7-42.41-33.32l15.75-3.82c2.99,12.32,13.95,20.93,26.66,20.93s23.67-8.61,26.66-20.93l15.75,3.83c-4.77,19.61-22.21,33.31-42.41,33.31Z"/>
</svg>