<?xml version="1.0" encoding="UTF-8"?><svg id="Ebene_2" xmlns="http://www.w3.org/2000/svg" viewBox="0 0 719.12 261.75"><defs><style>.cls-1{fill:#00abac;}.cls-2{fill:#fff;}</style></defs><g id="Ebene_1-2"><g><g><path class="cls-1" d="M271.61,133.04l-53.86,31.08c-.11,.11-.3,.2-.47,.25t-.05,0-.05,.02-.05,.03-.05,.03-.06,.02-.05,.03s-.03,.01-.05,.02c-.09,.05-.18,.1-.27,.15-3.34,1.87-7.51,2.02-11.06-.03l-21-12.12c-5.05-2.91-6.79-9.38-3.86-14.43,.79-1.37,2.55-1.85,3.93-1.04l27.33,15.78h.01l59.44-34.34C264.93,52.02,206.77,0,136,0S6.91,52.17,.6,118.77l59.07,34.13,27.33-15.79c1.38-.79,3.14-.32,3.94,1.05,2.91,5.05,1.18,11.51-3.86,14.42l-21,12.12c-3.66,2.12-7.99,1.89-11.37-.13-.04-.03-.09-.03-.14-.06t-.06-.02c-.21-.08-.43-.17-.63-.3L.05,133.12H.02c1.23,71.23,61.65,128.63,135.98,128.63s134.98-57.59,136.01-128.99c-.14,.11-.27,.19-.41,.27Zm-47.63,1.47c0,6.67-5.41,12.08-12.08,12.08s-12.08-5.41-12.08-12.08,5.41-12.08,12.08-12.08,12.08,5.41,12.08,12.08Zm-87.25-21.58c6.67,0,12.08,5.41,12.08,12.08s-5.41,12.08-12.08,12.08-12.08-5.41-12.08-12.08,5.41-12.08,12.08-12.08Zm-76.98,33.74c-6.67,0-12.08-5.41-12.08-12.08s5.41-12.08,12.08-12.08,12.08,5.41,12.08,12.08-5.41,12.08-12.08,12.08Zm83.07,9.42c-3.61,2.75-8.68,3.23-12.85,.81L61.8,117.55c-4.76-2.75-6.39-8.83-3.64-13.58l.85-1.46c.5-.87,1.6-1.16,2.46-.66l75.14,43.38,76.74-44.31c.85-.49,1.94-.2,2.43,.66,3.01,5.21,1.22,11.88-3.99,14.89l-67.42,38.92c-.51,.29-1.03,.48-1.57,.7Z"/><g><path class="cls-2" d="M211.79,116.47l-67.42,38.92c-.51,.29-1.03,.48-1.57,.7-3.61,2.75-8.68,3.23-12.85,.81L61.8,117.55c-4.76-2.75-6.39-8.83-3.64-13.58l.85-1.46c.5-.87,1.6-1.16,2.46-.66l75.14,43.38,76.74-44.31c.85-.49,1.94-.2,2.43,.66,3.01,5.21,1.22,11.88-3.99,14.89Z"/><path class="cls-2" d="M87.08,152.59l-21,12.12c-3.66,2.12-7.99,1.89-11.37-.13-.04-.03-.09-.03-.14-.06t-.06-.02c-.21-.08-.43-.17-.63-.3L.05,133.12H.02c-.02-.73-.02-1.49-.02-2.23,0-4.08,.19-8.1,.6-12.11l59.07,34.13,27.33-15.79c1.38-.79,3.14-.32,3.94,1.05,2.91,5.05,1.18,11.51-3.86,14.42Z"/><circle class="cls-2" cx="59.74" cy="134.59" r="12.08"/><path class="cls-2" d="M272.03,130.89c0,.63,0,1.25-.02,1.88-.14,.11-.27,.19-.41,.27l-53.86,31.08c-.17,.08-.3,.17-.47,.25t-.05,0-.05,.02-.05,.03-.05,.03-.06,.02-.05,.03s-.03,.01-.05,.02c-.09,.05-.18,.1-.27,.15-3.34,1.87-7.51,2.02-11.06-.03l-21-12.12c-5.05-2.91-6.79-9.38-3.86-14.43,.79-1.37,2.55-1.85,3.93-1.04l27.33,15.78h.01l59.44-34.34c.43,4.08,.62,8.22,.62,12.4Z"/><circle class="cls-2" cx="211.9" cy="134.51" r="12.08" transform="translate(62.7 336.34) rotate(-85.93)"/><circle class="cls-2" cx="136.72" cy="125.01" r="12.08"/></g></g><g><polygon class="cls-2" points="340.29 120.89 351.74 120.89 351.74 24.6 377.99 24.6 377.99 14.07 314.05 14.07 314.05 24.6 340.29 24.6 340.29 120.89"/><polygon class="cls-2" points="438.11 110.36 401.33 110.36 401.33 71.3 434.44 71.3 434.44 60.77 401.33 60.77 401.33 24.6 437.34 24.6 437.34 14.07 389.89 14.07 389.89 120.89 438.11 120.89 438.11 110.36"/><path class="cls-2" d="M466.16,91.82h30.12l8.67,29.91h12.05L484.8,13.23h-6.26l-32.2,108.5h11.29l8.52-29.91Zm12.02-42.78l2.96-16.43h.31l2.81,16.12,9.28,33.17h-24.34l8.98-32.86Z"/><polygon class="cls-2" points="593.75 120.89 605.2 120.89 605.2 14.07 595.13 14.07 570.71 66.41 567.05 79.08 566.74 79.08 562.93 66.57 537.14 14.07 527.53 14.07 527.53 120.89 538.51 120.89 538.51 50.7 536.38 34.52 536.99 34.52 541.72 49.63 564.3 96.02 568.12 96.02 589.63 49.63 594.52 34.52 595.13 34.52 593.75 50.7 593.75 120.89"/><polygon class="cls-2" points="334.92 246.78 351.78 246.78 351.78 201.24 383.58 201.24 383.58 185.25 351.78 185.25 351.78 155.56 385.9 155.56 385.9 139.57 334.92 139.57 334.92 246.78"/><path class="cls-2" d="M433.56,199.75c4.09-2.05,7.54-5.08,10.28-9.06,3.66-5.31,5.52-12.35,5.52-20.94,0-5.68-.83-10.52-2.48-14.4-1.67-3.93-3.96-7.17-6.8-9.63-2.83-2.45-6.2-4.22-10-5.25-3.62-.98-7.48-1.48-11.48-1.48-3.23,0-6.84,.17-10.75,.52-3.95,.35-7.62,.94-10.92,1.74l-2.3,.56v105.56h16.86v-45.6l5.79,1.16,21.86,44.44h19.29l-22.32-45.14-2.54-2.47Zm-1.63-29.42c0,6.11-1.33,10.62-3.95,13.41-2.61,2.77-6.15,4.11-10.82,4.11h-5.67v-32.49c.53-.06,1.16-.12,1.9-.17,2-.14,3.95-.21,5.79-.21,4.25,0,7.32,1.32,9.39,4.02,2.23,2.92,3.36,6.73,3.36,11.33Z"/><polygon class="cls-2" points="480.88 199.8 512.25 199.8 512.25 183.81 480.88 183.81 480.88 155.56 515 155.56 515 139.57 464.02 139.57 464.02 246.78 515.72 246.78 515.72 230.79 480.88 230.79 480.88 199.8"/><path class="cls-2" d="M548.78,137.78l-32.29,108.8h17l8.07-28.33h24l8.21,28.33h17.71l-32.29-108.8h-10.41Zm12.48,65.06h-15.15l7.47-27.33,.02-.08,7.67,27.41Z"/><polygon class="cls-2" points="624.93 190.93 627.96 188.17 657.41 139.57 637.91 139.57 611.28 185.24 611.28 139.57 594.42 139.57 594.42 246.78 611.28 246.78 611.28 199.94 611.79 199.94 640.41 246.78 661.25 246.78 628.84 194.75 624.93 190.93"/><path class="cls-2" d="M715.88,203.92c-2.07-3.92-4.68-7.47-7.76-10.55-2.99-2.99-6.26-5.75-9.71-8.2-3.23-2.29-6.32-4.62-9.19-6.91-2.68-2.15-4.93-4.44-6.69-6.82-1.55-2.09-2.3-4.43-2.3-7.17,0-3.06,.95-5.52,2.9-7.51,1.91-1.94,5.08-2.93,9.42-2.93,3.95,0,7.46,.4,10.42,1.2,2.93,.79,5.17,1.65,6.66,2.55l3.14,1.91,5.58-15.35-2.17-1.27c-2.56-1.5-5.91-2.73-9.94-3.66-3.96-.91-8.52-1.38-13.54-1.38-8.47,0-15.5,2.19-20.89,6.52-5.59,4.48-8.42,11.33-8.42,20.34,0,5.5,1.09,10.31,3.25,14.29,2.07,3.83,4.7,7.27,7.8,10.22,3,2.86,6.27,5.49,9.7,7.82,3.24,2.21,6.3,4.49,9.12,6.78,2.66,2.17,4.9,4.56,6.65,7.11,1.59,2.31,2.36,4.96,2.36,8.12,0,4.76-1.28,8.07-3.91,10.14-2.82,2.21-6.62,3.33-11.3,3.33-3.9,0-7.4-.51-10.4-1.51-3.04-1.01-5.39-2.08-6.99-3.17l-3.16-2.16-5.99,15.89,2.13,1.3c2.46,1.5,5.62,2.79,9.63,3.94,3.96,1.13,9.03,1.71,15.07,1.71,9.92,0,17.77-2.71,23.34-8.07,5.6-5.39,8.44-12.83,8.44-22.12,0-5.47-1.09-10.32-3.24-14.41Z"/></g></g></g></svg>